{
  "accessors": [
    {
      "bufferView": 2,
      "componentType": 5126,
      "count": 1849,
      "max": [
        6.289437294006348,
        1.2936491966247559,
        0.47733181715011597
      ],
      "min": [
        -1.8470392227172852,
        -1.8648979663848877,
        -5.310704231262207
      ],
      "type": "VEC3"
    },
    {
      "bufferView": 2,
      "byteOffset": 22188,
      "componentType": 5126,
      "count": 1849,
      "max": [
        0.9993615746498108,
        0.998236894607544,
        0.9999774694442749
      ],
      "min": [
        -0.9993731379508972,
        -0.9890930652618408,
        -0.999853253364563
      ],
      "type": "VEC3"
    },
    {
      "bufferView": 1,
      "componentType": 5126,
      "count": 1849,
      "max": [
        1.0,
        1.0
      ],
      "min": [
        0.0,
        0.0
      ],
      "type": "VEC2"
    },
    {
      "bufferView": 0,
      "componentType": 5125,
      "count": 6720,
      "type": "SCALAR"
    },
    {
      "bufferView": 2,
      "byteOffset": 44376,
      "componentType": 5126,
      "count": 422,
      "max": [
        7.36731481552124,
        1.0073089599609375,
        0.19874906539916992
      ],
      "min": [
        -8.043670654296875,
        -0.4412384033203125,
        -9.29865837097168
      ],
      "type": "VEC3"
    },
    {
      "bufferView": 2,
      "byteOffset": 49440,
      "componentType": 5126,
      "count": 422,
      "max": [
        0.9659218788146973,
        0.9999948143959045,
        0.9973389506340027
      ],
      "min": [
        -0.9455065727233887,
        -0.9999997615814209,
        -0.9986251592636108
      ],
      "type": "VEC3"
    },
    {
      "bufferView": 1,
      "byteOffset": 14792,
      "componentType": 5126,
      "count": 422,
      "max": [
        0.9978095889091492,
        0.4686943590641022
      ],
      "min": [
        -0.0056340997107326984,
        0.013675453141331673
      ],
      "type": "VEC2"
    },
    {
      "bufferView": 1,
      "byteOffset": 18168,
      "componentType": 5126,
      "count": 422,
      "max": [
        0.9978095889091492,
        0.4686943590641022
      ],
      "min": [
        -0.0056340997107326984,
        0.013675453141331673
      ],
      "type": "VEC2"
    },
    {
      "bufferView": 0,
      "byteOffset": 26880,
      "componentType": 5125,
      "count": 720,
      "type": "SCALAR"
    },
    {
      "bufferView": 2,
      "byteOffset": 54504,
      "componentType": 5126,
      "count": 347,
      "max": [
        3.0871803760528564,
        2.8436849117279053,
        2.0023016929626465
      ],
      "min": [
        -3.0871803760528564,
        -11.001559257507324,
        -10.59093952178955
      ],
      "type": "VEC3"
    },
    {
      "bufferView": 2,
      "byteOffset": 58668,
      "componentType": 5126,
      "count": 347,
      "max": [
        0.9885897040367126,
        0.9659215211868286,
        0.7909797430038452
      ],
      "min": [
        -0.9885897040367126,
        -0.9415997862815857,
        -0.7003522515296936
      ],
      "type": "VEC3"
    },
    {
      "bufferView": 1,
      "byteOffset": 21544,
      "componentType": 5126,
      "count": 347,
      "max": [
        0.9979999661445618,
        0.6761776208877563
      ],
      "min": [
        0.0020000000949949026,
        0.0020000000949949026
      ],
      "type": "VEC2"
    },
    {
      "bufferView": 0,
      "byteOffset": 29760,
      "componentType": 5125,
      "count": 594,
      "type": "SCALAR"
    },
    {
      "bufferView": 2,
      "byteOffset": 62832,
      "componentType": 5126,
      "count": 6586,
      "max": [
        6.339472770690918,
        -3.408604860305786,
        -13.280234336853027
      ],
      "min": [
        -5.895467758178711,
        -16.898635864257813,
        -43.255943298339844
      ],
      "type": "VEC3"
    },
    {
      "bufferView": 2,
      "byteOffset": 141864,
      "componentType": 5126,
      "count": 6586,
      "max": [
        0.9993821382522583,
        0.9995545744895935,
        0.994221568107605
      ],
      "min": [
        -0.9997449517250061,
        -0.9993882179260254,
        -0.9938462376594543
      ],
      "type": "VEC3"
    },
    {
      "bufferView": 1,
      "byteOffset": 24320,
      "componentType": 5126,
      "count": 6586,
      "max": [
        0.9979999661445618,
        0.7233346104621887
      ],
      "min": [
        0.023782644420862198,
        0.0020000000949949026
      ],
      "type": "VEC2"
    },
    {
      "bufferView": 0,
      "byteOffset": 32136,
      "componentType": 5125,
      "count": 6801,
      "type": "SCALAR"
    },
    {
      "bufferView": 2,
      "byteOffset": 220896,
      "componentType": 5126,
      "count": 2225,
      "max": [
        21.730709075927734,
        2.760343313217163,
        1.7583873271942139
      ],
      "min": [
        -21.999940872192383,
        -10.121515274047852,
        -15.642324447631836
      ],
      "type": "VEC3"
    },
    {
      "bufferView": 2,
      "byteOffset": 247596,
      "componentType": 5126,
      "count": 2225,
      "max": [
        0.9992610216140747,
        0.9998712539672852,
        0.9992889165878296
      ],
      "min": [
        -0.9993586540222168,
        -0.9995235800743103,
        -0.9951567053794861
      ],
      "type": "VEC3"
    },
    {
      "bufferView": 1,
      "byteOffset": 77008,
      "componentType": 5126,
      "count": 2225,
      "max": [
        0.9499087333679199,
        0.9953008890151978
      ],
      "min": [
        0.013745352625846863,
        0.0020000000949949026
      ],
      "type": "VEC2"
    },
    {
      "bufferView": 0,
      "byteOffset": 59340,
      "componentType": 5125,
      "count": 7923,
      "type": "SCALAR"
    },
    {
      "bufferView": 2,
      "byteOffset": 274296,
      "componentType": 5126,
      "count": 243,
      "max": [
        1.271054744720459,
        1.055428385734558,
        0.3631272315979004
      ],
      "min": [
        -2.3890085220336914,
        -0.8783385157585144,
        -0.11000003665685654
      ],
      "type": "VEC3"
    },
    {
      "bufferView": 2,
      "byteOffset": 277212,
      "componentType": 5126,
      "count": 243,
      "max": [
        1.0,
        1.0,
        1.0
      ],
      "min": [
        -1.0,
        -1.0,
        -1.0
      ],
      "type": "VEC3"
    },
    {
      "bufferView": 1,
      "byteOffset": 94808,
      "componentType": 5126,
      "count": 243,
      "max": [
        0.8940216302871704,
        0.9979999661445618
      ],
      "min": [
        0.0020000000949949026,
        0.0020000000949949026
      ],
      "type": "VEC2"
    },
    {
      "bufferView": 0,
      "byteOffset": 91032,
      "componentType": 5125,
      "count": 564,
      "type": "SCALAR"
    }
  ],
  "asset": {
    "extras": {
      "author": "adityajaiswal9968 (https://sketchfab.com/adityajaiswal9968)",
      "license": "CC-BY-4.0 (http://creativecommons.org/licenses/by/4.0/)",
      "source": "https://sketchfab.com/3d-models/formal-dress-for-man-with-full-sleeve-de14979f69d24dcebc78c4093c62c08b",
      "title": "Formal Dress For Man With Full Sleeve"
    },
    "generator": "Sketchfab-12.66.0",
    "version": "2.0"
  },
  "bufferViews": [
    {
      "buffer": 0,
      "byteLength": 93288,
      "name": "floatBufferViews",
      "target": 34963
    },
    {
      "buffer": 0,
      "byteLength": 96752,
      "byteOffset": 93288,
      "byteStride": 8,
      "name": "floatBufferViews",
      "target": 34962
    },
    {
      "buffer": 0,
      "byteLength": 280128,
      "byteOffset": 190040,
      "byteStride": 12,
      "name": "floatBufferViews",
      "target": 34962
    }
  ],
  "buffers": [
    {
      "byteLength": 470168,
      "uri": "scene.bin"
    }
  ],
  "images": [
    {
      "uri": "textures/03_-_Default_baseColor.jpeg"
    },
    {
      "uri": "textures/02_-_Default_baseColor.jpeg"
    },
    {
      "uri": "textures/Material_48_baseColor.jpeg"
    },
    {
      "uri": "textures/09_-_Default_baseColor.jpeg"
    }
  ],
  "materials": [
    {
      "doubleSided": true,
      "name": "03_-_Default",
      "pbrMetallicRoughness": {
        "baseColorTexture": {
          "index": 0
        },
        "metallicFactor": 0.0,
        "roughnessFactor": 0.8929713596
      }
    },
    {
      "doubleSided": true,
      "name": "02_-_Default",
      "pbrMetallicRoughness": {
        "baseColorTexture": {
          "index": 1
        },
        "metallicFactor": 0.0,
        "roughnessFactor": 0.8929713596
      }
    },
    {
      "doubleSided": true,
      "name": "Material_48",
      "pbrMetallicRoughness": {
        "baseColorTexture": {
          "index": 2
        },
        "metallicFactor": 0.0,
        "roughnessFactor": 0.8929713596
      }
    },
    {
      "doubleSided": true,
      "name": "09_-_Default",
      "pbrMetallicRoughness": {
        "baseColorTexture": {
          "index": 3
        },
        "metallicFactor": 0.0,
        "roughnessFactor": 0.8929713596
      }
    },
    {
      "doubleSided": true,
      "name": "04_-_Default",
      "pbrMetallicRoughness": {
        "metallicFactor": 0.0,
        "roughnessFactor": 0.6
      }
    }
  ],
  "meshes": [
    {
      "name": "Plane006_03 - Default_0",
      "primitives": [
        {
          "attributes": {
            "NORMAL": 1,
            "POSITION": 0,
            "TEXCOORD_0": 2
          },
          "indices": 3,
          "material": 0,
          "mode": 4
        }
      ]
    },
    {
      "name": "belt_02 - Default_0",
      "primitives": [
        {
          "attributes": {
            "NORMAL": 5,
            "POSITION": 4,
            "TEXCOORD_0": 6,
            "TEXCOORD_1": 7
          },
          "indices": 8,
          "material": 1,
          "mode": 4
        }
      ]
    },
    {
      "name": "tie_Material #48_0",
      "primitives": [
        {
          "attributes": {
            "NORMAL": 10,
            "POSITION": 9,
            "TEXCOORD_0": 11
          },
          "indices": 12,
          "material": 2,
          "mode": 4
        }
      ]
    },
    {
      "name": "pants_03 - Default_0",
      "primitives": [
        {
          "attributes": {
            "NORMAL": 14,
            "POSITION": 13,
            "TEXCOORD_0": 15
          },
          "indices": 16,
          "material": 0,
          "mode": 4
        }
      ]
    },
    {
      "name": "full sleeve un wrap001_09 - Default_0",
      "primitives": [
        {
          "attributes": {
            "NORMAL": 18,
            "POSITION": 17,
            "TEXCOORD_0": 19
          },
          "indices": 20,
          "material": 3,
          "mode": 4
        }
      ]
    },
    {
      "name": "lock_04 - Default_0",
      "primitives": [
        {
          "attributes": {
            "NORMAL": 22,
            "POSITION": 21,
            "TEXCOORD_0": 23
          },
          "indices": 24,
          "material": 4,
          "mode": 4
        }
      ]
    }
  ],
  "nodes": [
    {
      "children": [
        1
      ],
      "matrix": [
        1.0,
        0.0,
        0.0,
        0.0,
        0.0,
        2.220446049250313e-16,
        -1.0,
        0.0,
        0.0,
        1.0,
        2.220446049250313e-16,
        0.0,
        0.0,
        0.0,
        0.0,
        1.0
      ],
      "name": "Sketchfab_model"
    },
    {
      "children": [
        2
      ],
      "matrix": [
        1.0,
        0.0,
        0.0,
        0.0,
        0.0,
        0.0,
        1.0,
        0.0,
        0.0,
        -1.0,
        0.0,
        0.0,
        0.0,
        0.0,
        0.0,
        1.0
      ],
      "name": "0c29c6627fb74308b172345eed60526b.fbx"
    },
    {
      "children": [
        3,
        5,
        7,
        9,
        12,
        14
      ],
      "name": "RootNode"
    },
    {
      "children": [
        4
      ],
      "matrix": [
        -1.2949901819229126,
        -7.980993180968997e-33,
        1.5859055812191437e-16,
        -0.0,
        -3.99113019454065e-17,
        -1.2533109858448448,
        -0.32590051248404284,
        -0.0,
        -1.5348632871511029e-16,
        0.32590051248404284,
        -1.2533109858448448,
        -0.0,
        -2.8974623680114746,
        35.977195739746094,
        -1.6417263746261597,
        1.0
      ],
      "name": "Plane006"
    },
    {
      "mesh": 0,
      "name": "Plane006_03 - Default_0"
    },
    {
      "children": [
        6
      ],
      "matrix": [
        0.7278130650520325,
        0.0,
        0.0,
        0.0,
        0.0,
        0.8378717899322398,
        1.3650664256132595e-07,
        0.0,
        0.0,
        -1.3650664256132595e-07,
        0.8378717899322398,
        0.0,
        0.4084644317626953,
        34.9637451171875,
        5.28403902053833,
        1.0
      ],
      "name": "belt"
    },
    {
      "mesh": 1,
      "name": "belt_02 - Default_0"
    },
    {
      "children": [
        8
      ],
      "matrix": [
        0.9368783831596375,
        0.0,
        0.0,
        0.0,
        0.0,
        0.25134349145392304,
        -0.9025338391253646,
        0.0,
        0.0,
        0.9025338391253646,
        0.25134349145392304,
        0.0,
        0.05655974894762039,
        52.38398742675781,
        -0.766528844833374,
        1.0
      ],
      "name": "tie"
    },
    {
      "mesh": 2,
      "name": "tie_Material #48_0"
    },
    {
      "children": [
        10
      ],
      "matrix": [
        1.0376083850860596,
        0.0,
        0.0,
        0.0,
        0.0,
        2.3039531746355424e-16,
        -1.03760826587677,
        0.0,
        0.0,
        1.03760826587677,
        2.3039531746355424e-16,
        0.0,
        -2.6186575889587402,
        35.68988800048828,
        1.7496988773345947,
        1.0
      ],
      "name": "pants"
    },
    {
      "children": [
        11
      ],
      "matrix": [
        1.0,
        -0.0,
        0.0,
        0.0,
        0.0,
        0.953913450061301,
        0.3000818718152527,
        0.0,
        -0.0,
        -0.3000818718152527,
        0.953913450061301,
        0.0,
        2.4135968685150146,
        2.3566274642944336,
        15.913824081420898,
        1.0
      ],
      "name": "Object_10"
    },
    {
      "mesh": 3,
      "name": "pants_03 - Default_0"
    },
    {
      "children": [
        13
      ],
      "matrix": [
        1.0677249431610107,
        0.0,
        0.0,
        0.0,
        0.0,
        0.3204051189053486,
        -1.018517115235396,
        0.0,
        0.0,
        1.018517115235396,
        0.3204051189053486,
        0.0,
        0.05655974894762039,
        52.68147277832031,
        -0.766528844833374,
        1.0
      ],
      "name": "full sleeve un wrap001"
    },
    {
      "mesh": 4,
      "name": "full sleeve un wrap001_09 - Default_0"
    },
    {
      "children": [
        15
      ],
      "matrix": [
        0.7278130650520325,
        0.0,
        0.0,
        0.0,
        0.0,
        0.8378717899322398,
        1.3650664256132595e-07,
        0.0,
        0.0,
        -1.3650664256132595e-07,
        0.8378717899322398,
        0.0,
        0.4084644317626953,
        34.9637451171875,
        5.28403902053833,
        1.0
      ],
      "name": "lock"
    },
    {
      "mesh": 5,
      "name": "lock_04 - Default_0"
    }
  ],
  "samplers": [
    {
      "magFilter": 9729,
      "minFilter": 9987,
      "wrapS": 10497,
      "wrapT": 10497
    }
  ],
  "scene": 0,
  "scenes": [
    {
      "name": "Sketchfab_Scene",
      "nodes": [
        0
      ]
    }
  ],
  "textures": [
    {
      "sampler": 0,
      "source": 0
    },
    {
      "sampler": 0,
      "source": 1
    },
    {
      "sampler": 0,
      "source": 2
    },
    {
      "sampler": 0,
      "source": 3
    }
  ]
}
